HIERARCHY
ROOT Hips
{
	OFFSET -0.001795 -0.223333 0.028219
	CHANNELS 6 Xposition Yposition Zposition Zrotation Yrotation Xrotation
	JOINT LeftUpLeg
	{
		OFFSET 0.069520 -0.091406 -0.006815
		CHANNELS 3 Zrotation Yrotation Xrotation
		JOINT LeftLeg
		{
			OFFSET 0.034277 -0.375199 -0.004496
			CHANNELS 3 Zrotation Yrotation Xrotation
			JOINT LeftFoot
			{
				OFFSET -0.013596 -0.397961 -0.043693
				CHANNELS 3 Zrotation Yrotation Xrotation
				JOINT LeftToe
				{
					OFFSET 0.026358 -0.055791 0.119288
					CHANNELS 3 Zrotation Yrotation Xrotation
					End Site
					{
						OFFSET 0.000000 0.000000 0.000000
					}
				}
			}
		}
	}
	JOINT RightUpLeg
	{
		OFFSET -0.067670 -0.090522 -0.004320
		CHANNELS 3 Zrotation Yrotation Xrotation
		JOINT RightLeg
		{
			OFFSET -0.038290 -0.382569 -0.008850
			CHANNELS 3 Zrotation Yrotation Xrotation
			JOINT RightFoot
			{
				OFFSET 0.015774 -0.398415 -0.042312
				CHANNELS 3 Zrotation Yrotation Xrotation
				JOINT RightToe
				{
					OFFSET -0.025372 -0.048144 0.123348
					CHANNELS 3 Zrotation Yrotation Xrotation
					End Site
					{
						OFFSET 0.000000 0.000000 0.000000
					}
				}
			}
		}
	}
	JOINT Spine
	{
		OFFSET -0.002533 0.108963 -0.026696
		CHANNELS 3 Zrotation Yrotation Xrotation
		JOINT Spine1
		{
			OFFSET 0.005487 0.135180 0.001092
			CHANNELS 3 Zrotation Yrotation Xrotation
			JOINT Spine2
			{
				OFFSET 0.001457 0.052922 0.025425
				CHANNELS 3 Zrotation Yrotation Xrotation
				JOINT Neck
				{
					OFFSET -0.002778 0.213870 -0.042857
					CHANNELS 3 Zrotation Yrotation Xrotation
					JOINT Head
					{
						OFFSET 0.005152 0.064970 0.051349
						CHANNELS 3 Zrotation Yrotation Xrotation
						End Site
						{
							OFFSET 0.000000 0.000000 0.000000
						}
					}
				}
				JOINT LeftShoulder
				{
					OFFSET 0.078845 0.121749 -0.034090
					CHANNELS 3 Zrotation Yrotation Xrotation
					JOINT LeftArm
					{
						OFFSET 0.090977 0.030469 -0.008868
						CHANNELS 3 Zrotation Yrotation Xrotation
						JOINT LeftForeArm
						{
							OFFSET 0.259612 -0.012772 -0.027456
							CHANNELS 3 Zrotation Yrotation Xrotation
							JOINT LeftHand
							{
								OFFSET 0.249234 0.008986 -0.001171
								CHANNELS 3 Zrotation Yrotation Xrotation
								End Site
								{
									OFFSET 0.000000 0.000000 0.000000
								}
							}
						}
					}
				}
				JOINT RightShoulder
				{
					OFFSET -0.081759 0.118833 -0.038615
					CHANNELS 3 Zrotation Yrotation Xrotation
					JOINT RightArm
					{
						OFFSET -0.096012 0.032551 -0.009143
						CHANNELS 3 Zrotation Yrotation Xrotation
						JOINT RightForeArm
						{
							OFFSET -0.253742 -0.013329 -0.021401
							CHANNELS 3 Zrotation Yrotation Xrotation
							JOINT RightHand
							{
								OFFSET -0.255298 0.007772 -0.005559
								CHANNELS 3 Zrotation Yrotation Xrotation
								End Site
								{
									OFFSET 0.000000 0.000000 0.000000
								}
							}
						}
					}
				}
			}
		}
	}
}
MOTION
Frames: 13
Frame Time: 0.050000
-0.707305 0.884240 3.822009 1.576811 1.486823 -11.957900 -6.387870 -2.525165 -16.017930 -3.980527 0.275561 37.028460 5.606175 11.450349 -0.552410 0.000000 0.000000 0.000000 -8.450145 0.061001 -4.424628 23.873931 -16.602984 66.488336 -16.543545 -29.131746 36.470830 0.000000 0.000000 0.000000 -10.155871 0.858190 24.100141 0.734875 0.507739 -27.069646 9.383794 11.928008 30.561024 3.090999 1.356308 -19.520194 0.000000 0.000000 0.000000 -26.344039 -0.270947 -5.606230 -41.568224 -2.752924 -5.151597 -145.245155 -72.691090 136.095247 0.000000 0.000000 0.000000 6.698492 13.709856 6.254140 44.783591 43.176110 10.772050 -110.456326 65.403702 -71.837205 0.000000 0.000000 0.000000
-0.712175 0.882390 3.857564 0.631945 -0.166616 -13.553416 -4.820498 -1.764555 -12.319287 -4.109781 0.581965 38.147022 6.336459 12.481748 -3.302579 0.000000 0.000000 0.000000 -9.171904 0.165843 -10.861754 24.414177 -16.408299 67.600688 -19.155773 -32.762290 31.756411 0.000000 0.000000 0.000000 -9.327496 0.885667 26.947317 2.054907 0.153808 -27.170287 7.234788 8.696453 30.131478 1.118686 1.924518 -18.679821 0.000000 0.000000 0.000000 -27.039035 -1.640704 -3.305308 -41.785683 -7.898260 -4.016764 -140.003214 -80.334480 137.232944 0.000000 0.000000 0.000000 8.790309 14.667752 6.666726 44.339471 40.524887 8.823758 -114.898086 66.679217 -79.672756 0.000000 0.000000 0.000000
-0.717602 0.880558 3.889952 0.152810 -1.998684 -14.284225 -3.768100 -1.262986 -9.401823 -4.161208 0.927027 38.666021 7.030210 13.828686 -5.290586 0.000000 0.000000 0.000000 -8.667599 0.456938 -17.450475 24.251689 -14.373258 63.796193 -23.791896 -38.046682 30.688000 0.000000 0.000000 0.000000 -8.648605 0.971789 29.242339 2.961259 -0.158705 -26.319327 5.367362 5.775859 29.357976 -0.539985 2.451586 -19.140974 0.000000 0.000000 0.000000 -26.733757 -2.394836 -1.380259 -42.300601 -13.007042 -2.785572 -114.396691 -87.915199 117.594094 0.000000 0.000000 0.000000 8.983289 15.178966 6.447622 46.370079 37.424336 7.805529 -120.847105 67.166900 -88.165497 0.000000 0.000000 0.000000
-0.723261 0.879544 3.921258 -0.342038 -4.661197 -14.603995 -2.972606 -0.742133 -5.636873 -3.821484 1.191121 37.093194 7.911746 15.956994 -7.960869 0.000000 0.000000 0.000000 -7.086589 1.051114 -21.815435 21.622786 -9.790211 55.441699 -24.911685 -40.686493 26.205500 0.000000 0.000000 0.000000 -7.833261 1.103830 31.101871 3.936599 -0.443162 -26.727299 3.695028 3.213182 29.639302 -2.773289 3.393394 -19.966014 0.000000 0.000000 0.000000 -26.755804 -3.271861 0.585775 -42.300770 -16.452229 -2.128035 22.400897 -84.486277 -14.149602 0.000000 0.000000 0.000000 9.041847 15.921647 6.293269 46.385581 34.133496 6.129198 -122.436710 68.189779 -93.043264 0.000000 0.000000 0.000000
-0.729351 0.879405 3.952954 0.023512 -6.784318 -14.796256 -2.945677 -0.311925 -1.937294 -4.060538 1.594380 35.091520 8.457683 17.730576 -9.403493 0.000000 0.000000 0.000000 -6.167666 1.549472 -24.599669 18.968789 -6.322781 45.546141 -25.436239 -41.700414 24.991041 0.000000 0.000000 0.000000 -7.187024 1.232285 32.228688 4.232610 -0.675016 -25.316899 1.991803 0.951028 28.066547 -4.474233 3.991248 -20.091621 0.000000 0.000000 0.000000 -26.254301 -3.643086 1.872368 -42.890517 -18.190698 -1.695118 28.507878 -80.042381 -17.190294 0.000000 0.000000 0.000000 10.014046 15.806093 5.879608 47.265605 29.029465 4.218119 -127.754837 71.154515 -104.430335 0.000000 0.000000 0.000000
-0.736081 0.880209 3.986192 -0.110155 -8.423296 -14.932121 -2.967874 0.250914 2.618683 -3.482108 1.394540 31.795549 8.767449 19.169848 -11.162417 0.000000 0.000000 0.000000 -5.200184 2.001013 -26.122894 16.199078 -3.962854 35.659190 -24.410452 -40.437327 25.497312 0.000000 0.000000 0.000000 -5.656609 1.078990 33.545552 3.684512 -0.457703 -26.884843 0.780132 -1.585125 28.616969 -6.577086 4.858819 -21.268278 0.000000 0.000000 0.000000 -26.099470 -3.524365 2.917129 -43.175492 -19.986195 -1.427842 25.026817 -76.779266 -12.309613 0.000000 0.000000 0.000000 10.810887 15.682388 5.411727 47.043268 24.249484 2.189891 -128.577874 73.780234 -110.031385 0.000000 0.000000 0.000000
-0.743884 0.881233 4.020652 -0.226034 -9.565776 -14.672919 -2.772852 0.807443 6.784614 -3.206231 1.217981 28.382044 8.832850 19.972185 -12.004336 0.000000 0.000000 0.000000 -4.457645 2.238388 -26.126822 14.134121 -2.652711 26.676334 -24.393192 -39.364805 29.290333 0.000000 0.000000 0.000000 -4.222692 0.818750 33.754450 3.000617 -0.339647 -26.569195 0.495086 -3.699772 27.408848 -8.003964 5.323344 -22.071413 0.000000 0.000000 0.000000 -26.618013 -3.578645 3.780790 -42.837432 -21.043444 -1.199686 23.213822 -74.331597 -9.797863 0.000000 0.000000 0.000000 10.595676 14.170028 4.361825 47.264052 18.888749 0.267051 -132.725386 77.277577 -120.077191 0.000000 0.000000 0.000000
-0.753118 0.880427 4.056524 0.131000 -9.793593 -13.565750 -2.563430 1.235446 9.826367 -3.535598 1.194895 25.206474 8.628222 19.774657 -12.624360 0.000000 0.000000 0.000000 -5.253665 2.079494 -25.958603 13.362751 -2.086158 18.355658 -26.619758 -40.352897 33.718186 0.000000 0.000000 0.000000 -2.682182 0.388941 32.584776 1.756597 0.101141 -28.802253 -0.623849 -6.415084 30.031645 -9.559402 5.797046 -23.002797 0.000000 0.000000 0.000000 -26.672426 -3.808584 5.153610 -42.986475 -23.881245 -0.773753 21.793843 -74.207362 -7.406369 0.000000 0.000000 0.000000 11.182873 14.120271 3.915477 45.052289 13.890011 -1.673464 -139.654603 78.823574 -131.175130 0.000000 0.000000 0.000000
-0.763815 0.880373 4.094587 0.573982 -9.805225 -11.994820 -2.905796 1.651802 12.389891 -2.955614 0.838896 22.033591 8.486881 19.530231 -11.756316 0.000000 0.000000 0.000000 -5.339839 2.110076 -26.210686 12.591203 -1.656934 12.129139 -35.626864 -43.298786 48.005040 0.000000 0.000000 0.000000 -1.897615 0.108943 29.959559 1.931320 0.014288 -27.748659 -1.678762 -7.985833 28.320288 -9.390241 5.446598 -21.708667 0.000000 0.000000 0.000000 -26.567951 -3.373652 5.354331 -43.367872 -23.389270 -0.887428 16.916533 -74.666218 -3.385147 0.000000 0.000000 0.000000 10.742877 13.294406 3.287916 46.242714 10.211212 -2.853044 -143.168601 82.895180 -139.383373 0.000000 0.000000 0.000000
-0.776697 0.877999 4.136507 1.002013 -10.533687 -10.382420 -3.023457 1.949400 14.018627 -2.858098 0.808376 20.806086 8.625361 19.946301 -9.240182 0.000000 0.000000 0.000000 -5.396952 2.208648 -26.593045 12.873247 -1.627902 11.531454 -44.355195 -45.444187 58.342374 0.000000 0.000000 0.000000 -0.802234 -0.116292 28.825729 1.638365 0.279934 -30.690505 -3.051525 -8.768230 30.066507 -7.281667 3.724903 -21.374911 0.000000 0.000000 0.000000 -27.145084 -3.655275 6.188343 -42.619971 -24.076327 -1.004980 9.022266 -74.603273 2.832748 0.000000 0.000000 0.000000 10.462127 11.096627 2.223698 48.219635 8.326321 -3.946344 -170.002607 86.526699 -170.680694 0.000000 0.000000 0.000000
-0.792542 0.876306 4.181989 0.792794 -11.607698 -8.829295 -2.288217 2.260408 16.218973 -2.900643 0.806248 19.221550 8.842253 20.256196 -5.029600 0.000000 0.000000 0.000000 -4.738473 2.477756 -27.055739 13.099122 -1.722784 14.296747 -47.751131 -46.946405 60.054756 0.000000 0.000000 0.000000 0.471461 -0.390707 26.729013 0.272596 0.578313 -31.488118 -2.964312 -10.985141 30.266593 -5.854380 2.171744 -21.819165 0.000000 0.000000 0.000000 -27.410808 -2.438398 6.344658 -42.829780 -24.550072 -0.998448 -0.017510 -75.012366 10.319987 0.000000 0.000000 0.000000 12.017463 9.163654 0.618984 47.272399 4.167444 -5.167555 117.273001 86.990406 111.530008 0.000000 0.000000 0.000000
-0.812357 0.877393 4.230147 0.262021 -14.986351 -7.796940 -0.214143 2.262510 17.046950 -6.027480 2.233247 21.330440 10.117513 21.814805 4.769988 0.000000 0.000000 0.000000 -3.001084 3.059669 -27.106847 13.957625 -1.767962 17.903690 -49.651978 -48.732559 58.814424 0.000000 0.000000 0.000000 0.273901 -0.194277 25.079299 2.707632 0.056851 -31.066726 -3.353099 -11.775588 29.363951 -5.630656 1.618535 -21.066696 0.000000 0.000000 0.000000 -28.431594 -0.690853 6.255929 -44.553778 -23.209678 -1.488596 -8.403321 -76.251297 17.987041 0.000000 0.000000 0.000000 12.336357 9.387333 -0.002857 48.462978 2.315638 -5.710728 63.375565 82.647561 52.414753 0.000000 0.000000 0.000000
-0.835705 0.882109 4.277952 -0.186346 -19.625684 -6.208650 2.347037 1.666746 13.797133 -9.595669 5.339894 28.721467 9.525520 18.995134 17.073986 0.000000 0.000000 0.000000 -1.407512 3.634935 -26.996272 15.325843 -1.697294 21.074709 -45.769526 -48.917840 52.978331 0.000000 0.000000 0.000000 0.856809 -0.240814 20.855051 4.352103 -0.194737 -31.535963 -4.470446 -10.466659 31.061874 -6.016608 1.682965 -20.080500 0.000000 0.000000 0.000000 -29.085345 0.868370 6.139986 -44.870128 -22.124778 -2.304825 -24.760686 -74.996855 31.168547 0.000000 0.000000 0.000000 13.497662 9.045994 -0.912941 48.292759 -0.660604 -6.740218 65.445646 78.144041 49.678560 0.000000 0.000000 0.000000
